# File created by Blade
# Date/Time:  Fri Jan 16 15:45:56 2015
#---------------------------------------------------------
:version 1.10
:name HOM
:units
  mass 1.0
  length 1.000000
  angle deg
:documentation
     Acclaim Skeleton File
:root
   axis xyz
   order TX TY TZ RX RY RZ
   position 0.000000 0.000000 0.000000
   orientation 0 0 0
:bonedata
   begin
      id 1
      name Spine_dum
      direction 0.000000 1.000000 0.000000
      length 7.170412
      axis 0.0 0.0 0.0 xyz
   end
   begin
      id 2
      name LeftUpLeg_dum
      direction 1.000000 0.000000 0.000000
      length 4.318350
      axis 0.0 0.0 0.0 xyz
   end
   begin
      id 3
      name RightUpLeg_dum
      direction -1.000000 0.000000 0.000000
      length 4.318350
      axis 0.0 0.0 0.0 xyz
   end
   begin
      id 4
      name Spine
      direction 0.000000 1.000000 0.000000
      length 0.000000
      axis 0.0 0.0 0.0 xyz
      dof rx ry rz
   end
   begin
      id 5
      name Spine_dum1
      direction 0.000000 1.000000 0.000000
      length 14.276153
      axis 0.0 0.0 0.0 xyz
   end
   begin
      id 6
      name Spine_dum2
      direction 0.000000 1.000000 0.000000
      length 10.718243
      axis 0.0 0.0 0.0 xyz
   end
   begin
      id 7
      name Spine_dum3
      direction 0.000000 1.000000 0.000000
      length 10.718243
      axis 0.0 0.0 0.0 xyz
   end
   begin
      id 8
      name Head
      direction 0.000000 1.000000 0.000000
      length 4.527550
      axis 0.0 0.0 0.0 xyz
      dof rx ry rz
   end
   begin
      id 9
      name LeftShoulder
      direction 1.000000 0.000000 0.000000
      length 7.058872
      axis 0.0 0.0 -90.0 xyz
      dof rx ry rz
   end
   begin
      id 10
      name LeftArm
      direction 1.000000 0.000000 0.000000
      length 10.955525
      axis 0.0 0.0 -90.0 xyz
      dof rx ry rz
   end
   begin
      id 11
      name LeftForeArm
      direction 1.000000 0.000000 0.000000
      length 8.193716
      axis 0.0 0.0 -90.0 xyz
      dof ry rz rx
   end
   begin
      id 12
      name LeftHand
      direction 0.000000 0.000000 0.000000
      length 0.000000
      axis 0.0 0.0 -90.0 xyz
      dof rx ry rz
   end
   begin
      id 13
      name LeftHand_dum1
      direction 0.000000 0.000000 0.000000
      length 0.000000
      axis 0.0 0.0 -90.0 xyz
   end
   begin
      id 14
      name LeftHand_dum2
      direction 1.000000 0.000000 0.000000
      length 3.937000
      axis 0.0 0.0 -90.0 xyz
   end
   begin
      id 15
      name LeftHandThumb1
      direction 0.000000 0.000000 1.000000
      length 3.937000
      axis 0.0 0.0 -90.0 xyz
      dof rx rz ry
   end
   begin
      id 16
      name RightShoulder
      direction -1.000000 0.000000 0.000000
      length 7.058872
      axis 0.0 0.0 90.0 xyz
      dof rx ry rz
   end
   begin
      id 17
      name RightArm
      direction -1.000000 0.000000 0.000000
      length 10.955525
      axis 0.0 0.0 90.0 xyz
      dof rx ry rz
   end
   begin
      id 18
      name RightForeArm
      direction -1.000000 0.000000 0.000000
      length 8.193716
      axis 0.0 0.0 90.0 xyz
      dof ry rz rx
   end
   begin
      id 19
      name RightHand
      direction 0.000000 0.000000 0.000000
      length 0.000000
      axis 0.0 0.0 90.0 xyz
      dof rx ry rz
   end
   begin
      id 20
      name RightHand_dum1
      direction 0.000000 0.000000 0.000000
      length 0.000000
      axis 0.0 0.0 90.0 xyz
   end
   begin
      id 21
      name RightHand_dum2
      direction -1.000000 0.000000 0.000000
      length 3.937000
      axis 0.0 0.0 90.0 xyz
   end
   begin
      id 22
      name RightHandThumb1
      direction 0.000000 0.000000 1.000000
      length 3.937000
      axis 0.0 0.0 90.0 xyz
      dof rx rz ry
   end
   begin
      id 23
      name LeftUpLeg
      direction 0.000000 -1.000000 0.000000
      length 17.323638
      axis 0.0 0.0 0.0 xyz
      dof rx ry rz
   end
   begin
      id 24
      name LeftLeg
      direction 0.000000 -1.000000 0.000000
      length 16.270368
      axis 0.0 0.0 0.0 xyz
      dof rx ry rz
   end
   begin
      id 25
      name LeftFoot
      direction 0.000000 -0.258819 0.965926
      length 4.922846
      axis 15.0 0.0 0.0 xyz
      dof rx ry rz
   end
   begin
      id 26
      name LeftToeBase
      direction 0.000000 0.000000 1.000000
      length 2.952750
      axis 0.0 0.0 0.0 xyz
      dof rx ry rz
   end
   begin
      id 27
      name RightUpLeg
      direction 0.000000 -1.000000 0.000000
      length 17.323638
      axis 0.0 0.0 0.0 xyz
      dof rx ry rz
   end
   begin
      id 28
      name RightLeg
      direction 0.000000 -1.000000 0.000000
      length 16.270368
      axis 0.0 0.0 0.0 xyz
      dof rx ry rz
   end
   begin
      id 29
      name RightFoot
      direction 0.000000 -0.258819 0.965926
      length 4.922846
      axis 15.0 0.0 0.0 xyz
      dof rx ry rz
   end
   begin
      id 30
      name RightToeBase
      direction 0.000000 0.000000 1.000000
      length 2.952750
      axis 0.0 0.0 0.0 xyz
      dof rx ry rz
   end
:hierarchy
   begin
      root Spine_dum LeftUpLeg_dum RightUpLeg_dum
      Spine_dum Spine
      LeftUpLeg_dum LeftUpLeg
      RightUpLeg_dum RightUpLeg
      Spine Spine_dum1 Spine_dum2 Spine_dum3
      Spine_dum1 Head
      Spine_dum2 LeftShoulder
      Spine_dum3 RightShoulder
      LeftShoulder LeftArm
      LeftArm LeftForeArm
      LeftForeArm LeftHand
      LeftHand LeftHand_dum1 LeftHand_dum2
      LeftHand_dum1 LeftHandThumb1
      RightShoulder RightArm
      RightArm RightForeArm
      RightForeArm RightHand
      RightHand RightHand_dum1 RightHand_dum2
      RightHand_dum1 RightHandThumb1
      LeftUpLeg LeftLeg
      LeftLeg LeftFoot
      LeftFoot LeftToeBase
      RightUpLeg RightLeg
      RightLeg RightFoot
      RightFoot RightToeBase
   end

# File created by Blade
# Date/Time:  Fri Jan 16 15:45:48 2015
# Frame Rate: 120.000 fps
#------------------------------------------------------
:FULLY-SPECIFIED
:DEGREES
551
root -5.460731 35.253292 -9.783621 2.628187 -1.853510 -4.391737
Spine -7.141669 1.441904 2.320046
Head -0.864714 2.880688 -2.184367
LeftShoulder -22.701911 9.276845 -15.917753
LeftArm 20.631220 13.952439 -68.821009
LeftForeArm 17.486989 -0.000000 12.459095
LeftHand 1.000038 -0.000000 -6.894671
LeftHandThumb1 -26.253704 0.000000 33.147579
RightShoulder -15.412202 33.556266 -53.267504
RightArm 47.420529 57.167408 26.914287
RightForeArm -22.425396 -0.000000 89.379058
RightHand 3.997888 -0.000000 -47.121235
RightHandThumb1 -24.326973 -0.000000 -32.862282
LeftUpLeg 7.135741 12.463480 5.059462
LeftLeg -9.851421 -0.000000 0.000000
LeftFoot -14.041764 25.238614 -10.465859
LeftToeBase 21.467142 -0.000000 -0.000000
RightUpLeg 5.206168 -8.089919 1.186031
RightLeg -5.172170 -0.000000 0.000000
RightFoot -5.369998 -25.464438 6.828946
RightToeBase 12.126673 -0.000000 -0.000000
552
root -5.459048 35.252047 -9.779889 2.654739 -1.747095 -4.382207
Spine -7.195209 1.544615 2.333416
Head -0.835642 2.490536 -2.283800
LeftShoulder -22.503599 9.308424 -15.933790
LeftArm 20.614330 14.006223 -68.756723
LeftForeArm 17.529370 0.000000 12.408937
LeftHand 1.015562 -0.000000 -7.045855
LeftHandThumb1 -26.253704 0.000000 33.147579
RightShoulder -15.726630 33.822385 -53.177284
RightArm 50.387234 58.049368 30.498572
RightForeArm -22.018684 0.000000 89.241067
RightHand 4.054185 -0.000000 -48.060283
RightHandThumb1 -24.326973 -0.000000 -32.862282
LeftUpLeg 7.081952 12.404111 5.045011
LeftLeg -9.834186 -0.000000 0.000000
LeftFoot -14.034938 25.205949 -10.440704
LeftToeBase 21.452401 -0.000000 -0.000000
RightUpLeg 5.203577 -8.152719 1.183150
RightLeg -5.183544 -0.000000 0.000000
RightFoot -5.390557 -25.510205 6.831361
RightToeBase 12.171631 -0.000000 -0.000000
553
root -5.456235 35.250038 -9.776047 2.705512 -1.658307 -4.366450
Spine -7.292039 1.702183 2.322164
Head -0.788782 2.071823 -2.360287
LeftShoulder -22.317249 9.361036 -15.919066
LeftArm 20.619058 14.172106 -68.679482
LeftForeArm 17.510523 -0.000000 12.359449
LeftHand 0.983213 -0.000000 -7.126611
LeftHandThumb1 -26.253704 0.000000 33.147579
RightShoulder -15.927308 33.885185 -52.976497
RightArm 53.547161 59.056142 34.215382
RightForeArm -21.731165 -0.000000 89.131095
RightHand 3.979154 0.000000 -48.796489
RightHandThumb1 -24.326973 -0.000000 -32.862282
LeftUpLeg 7.008093 12.359371 5.015053
LeftLeg -9.813304 -0.000000 0.000000
LeftFoot -14.034203 25.169620 -10.409456
LeftToeBase 21.430772 -0.000000 -0.000000
RightUpLeg 5.177662 -8.200508 1.174497
RightLeg -5.201570 -0.000000 0.000000
RightFoot -5.422847 -25.549890 6.785555
RightToeBase 12.221286 -0.000000 -0.000000
554
root -5.453810 35.247932 -9.769753 2.724419 -1.589886 -4.365404
Spine -7.311215 1.857317 2.327706
Head -0.844330 1.711181 -2.419610
LeftShoulder -22.197821 9.361535 -15.912904
LeftArm 20.630763 14.803135 -68.398146
LeftForeArm 17.032910 -0.000000 12.438773
LeftHand 0.839503 0.000000 -7.001668
LeftHandThumb1 -26.253704 0.000000 33.147579
RightShoulder -16.118826 34.045776 -52.774084
RightArm 56.855103 59.977515 38.065823
RightForeArm -21.316183 -0.000000 88.986320
RightHand 4.119897 -0.000000 -49.561728
RightHandThumb1 -24.326973 -0.000000 -32.862282
LeftUpLeg 6.985105 12.359447 5.010600
LeftLeg -9.819060 -0.000000 0.000000
LeftFoot -14.045110 25.126639 -10.384869
LeftToeBase 21.463805 -0.000000 -0.000000
RightUpLeg 5.186834 -8.236172 1.172037
RightLeg -5.220740 -0.000000 0.000000
RightFoot -5.434198 -25.571596 6.847442
RightToeBase 12.138986 -0.000000 -0.000000
555
root -5.451491 35.247858 -9.764465 2.741322 -1.509062 -4.359086
Spine -7.359010 1.992365 2.352257
Head -0.805284 1.355912 -2.547634
LeftShoulder -22.026323 9.361656 -15.920086
LeftArm 20.577168 15.017848 -68.287724
LeftForeArm 16.854819 -0.000000 12.430128
LeftHand 0.759327 -0.000000 -7.142165
LeftHandThumb1 -26.253704 0.000000 33.147579
RightShoulder -16.638710 34.534501 -52.926716
RightArm 60.330446 60.225178 42.449865
RightForeArm -20.972451 0.000000 88.936872
RightHand 4.686358 0.000000 -49.756797
RightHandThumb1 -24.326973 -0.000000 -32.862282
LeftUpLeg 6.951741 12.330185 4.998562
LeftLeg -9.808033 -0.000000 0.000000
LeftFoot -14.047134 25.100041 -10.352707
LeftToeBase 21.510733 -0.000000 -0.000000
RightUpLeg 5.191537 -8.288265 1.167139
RightLeg -5.228931 -0.000000 0.000000
RightFoot -5.448237 -25.604853 6.817611
RightToeBase 12.233587 -0.000000 -0.000000
556
root -5.449853 35.246109 -9.758226 2.749472 -1.433133 -4.356541
Spine -7.425609 2.171318 2.362400
Head -0.695287 0.976792 -2.641281
LeftShoulder -21.809309 9.432295 -15.904723
LeftArm 20.559517 15.034816 -68.279805
LeftForeArm 16.878452 0.000000 12.356172
LeftHand 0.764730 -0.000000 -7.213024
LeftHandThumb1 -26.253704 0.000000 33.147579
RightShoulder -16.776728 34.912874 -52.775743
RightArm 63.729918 60.710772 46.426368
RightForeArm -20.444930 -0.000000 88.817495
RightHand 5.220431 -0.000000 -49.946636
RightHandThumb1 -24.326973 -0.000000 -32.862282
LeftUpLeg 6.929776 12.311469 4.994403
LeftLeg -9.791800 -0.000000 0.000000
LeftFoot -14.043184 25.055245 -10.320433
LeftToeBase 21.494913 -0.000000 -0.000000
RightUpLeg 5.207809 -8.326759 1.164841
RightLeg -5.237482 -0.000000 0.000000
RightFoot -5.472870 -25.621128 6.831078
RightToeBase 12.228458 -0.000000 -0.000000
557
root -5.450130 35.243169 -9.751734 2.774348 -1.368073 -4.366248
Spine -7.530997 2.324812 2.307159
Head -0.544625 0.624172 -2.530958
LeftShoulder -21.669794 9.486481 -15.800746
LeftArm 20.523800 15.032382 -68.364165
LeftForeArm 16.957458 -0.000000 12.271357
LeftHand 0.716343 -0.000000 -7.326327
LeftHandThumb1 -26.253704 0.000000 33.147579
RightShoulder -15.159123 32.015287 -50.019091
RightArm 73.116482 64.033552 53.948542
RightForeArm -19.531577 -0.000000 87.937896
RightHand 5.316700 -0.000000 -51.234600
RightHandThumb1 -24.326973 -0.000000 -32.862282
LeftUpLeg 6.897108 12.314317 5.002640
LeftLeg -9.791664 -0.000000 0.000000
LeftFoot -14.085469 25.008288 -10.315454
LeftToeBase 21.592723 -0.000000 -0.000000
RightUpLeg 5.206286 -8.362703 1.179427
RightLeg -5.250351 -0.000000 0.000000
RightFoot -5.491067 -25.645205 6.888428
RightToeBase 12.157770 -0.000000 -0.000000
558
root -5.447730 35.242182 -9.742453 2.796749 -1.323980 -4.368611
Spine -7.619691 2.514143 2.326334
Head -0.453792 0.272414 -2.640759
LeftShoulder -21.504352 9.490307 -15.768304
LeftArm 20.423683 15.083550 -68.373407
LeftForeArm 16.848452 -0.000000 12.222324
LeftHand 0.765829 -0.000000 -7.343453
LeftHandThumb1 -26.253704 0.000000 33.147579
RightShoulder -15.423426 32.498270 -50.052836
RightArm 76.942679 63.886749 58.535218
RightForeArm -18.828222 -0.000000 87.902408
RightHand 4.871584 -0.000000 -52.989200
RightHandThumb1 -24.326973 -0.000000 -32.862282
LeftUpLeg 6.885296 12.299749 4.997820
LeftLeg -9.803931 -0.000000 0.000000
LeftFoot -14.060679 25.014726 -10.247371
LeftToeBase 21.556076 -0.000000 -0.000000
RightUpLeg 5.202233 -8.388296 1.181541
RightLeg -5.246788 -0.000000 0.000000
RightFoot -5.525607 -25.662944 6.886515
RightToeBase 12.225213 -0.000000 -0.000000
559
root -5.445131 35.241285 -9.737087 2.848776 -1.253412 -4.367583
Spine -7.780396 2.694274 2.349978
Head -0.313393 -0.252175 -2.763504
LeftShoulder -21.282014 9.567468 -15.742759
LeftArm 20.313735 14.975098 -68.440089
LeftForeArm 16.750289 -0.000000 12.188617
LeftHand 0.877131 -0.000000 -7.179266
LeftHandThumb1 -26.253704 0.000000 33.147579
RightShoulder -15.543284 32.802651 -49.989625
RightArm 80.874644 63.738443 63.141365
RightForeArm -18.161282 -0.000000 87.924988
RightHand 4.606069 -0.000000 -53.991934
RightHandThumb1 -24.326973 -0.000000 -32.862282
LeftUpLeg 6.814771 12.273698 4.982299
LeftLeg -9.785230 -0.000000 0.000000
LeftFoot -14.098678 24.985381 -10.274083
LeftToeBase 21.547989 -0.000000 -0.000000
RightUpLeg 5.162448 -8.436610 1.182708
RightLeg -5.235395 -0.000000 0.000000
RightFoot -5.541278 -25.666914 6.877719
RightToeBase 12.248901 -0.000000 -0.000000
